# xmcd
#
# Track frame offsets:
#	182
#	17995
#	42665
#	64950
#	84635
#	103177
#	128772
#	152105
#	174592
#	195145
#	222202
#	237282
#	253980
#	273762
#	298695
#	317640
#
# Disc length: 4484
#
# Revision: 1
# Processed by: cddbd v1.5.1PL0 Copyright (c) Steve Scherf et al.
# Submitted via: dBpowerAMP V4.0
# Normalized: r0:TDELIM( - )
#
DISCID=eb118210
DTITLE=Hardcore 4 - The Orginal no 1
DYEAR=1996
DGENRE=Big Band
TTITLE0=Charly Lownoise and Mental Theo - Fantasy World (Hardcore Mix)
TTITLE1=Dune - Hand in hand (Head on Head)
TTITLE2=DJ Isaac - We Like Marihuana (DJ Paul Forze Mix)
TTITLE3=Scott Brown - Cool Pleased Brother
TTITLE4=DJ Fuckface - Jaxx Eargasm
TTITLE5=Nakatomi - Children of the Night (Lean Mean RaveMachine Version)
TTITLE6=The Alternative Creators - Sound Creation (Stunned Guys Version)
TTITLE7=DJ Rob and Tim B - The Second Coming
TTITLE8=DJ Petrov and The House Foundation - Hardcore Scratch Machine
TTITLE9=DJ Gizmo and The Dark Raver - We Got Our Own Thang (Gizmo's Mix)
TTITLE10=Casio Brothers - Party Time
TTITLE11=Body Parts - Love in The 1st Degree (Spiritual Child and The Return of The Madman Mix)
TTITLE12=Spirtual Child Hardcore - Original
TTITLE13=E Lyte - Follow Me (DJ Fuckface Mix)
TTITLE14=Activator - Hard to Hard
TTITLE15=Omar Santana and DJ Paul - Bullshittin'
EXTD=
EXTT0=
EXTT1=
EXTT2=
EXTT3=
EXTT4=
EXTT5=
EXTT6=
EXTT7=
EXTT8=
EXTT9=
EXTT10=
EXTT11=
EXTT12=
EXTT13=
EXTT14=
EXTT15=
PLAYORDER=
